# xmcd CD database file
#
# Track frame offsets:
#	150
#	4198
#	26553
#	45663
#	63876
#	89296
#	110498
#	126901
#	136998
#	146358
#	162573
#
# Disc length: 2426 seconds
#
# Revision: 1
# Processed by: cddbd v1.5.1PL0 Copyright (c) Steve Scherf et al.
# Submitted via: CDex 1.51
#
DISCID=9109780b
DTITLE=Alvin Lee - In Flight [CD2]
DYEAR=1974
DGENRE=Jazz
TTITLE0=Intro
TTITLE1=Let's Get Back
TTITLE2=Ride My Train
TTITLE3=There's A Feeling
TTITLE4=Running Round
TTITLE5=Mystery Train
TTITLE6=Slow Down
TTITLE7=Keep A Knocking
TTITLE8=How Many Times
TTITLE9=I've Got Eyes For You Baby
TTITLE10=I'm Writing You A Letter
EXTD=YEAR: 1974
EXTT0=
EXTT1=
EXTT2=
EXTT3=
EXTT4=
EXTT5=
EXTT6=
EXTT7=
EXTT8=
EXTT9=
EXTT10=
PLAYORDER=
